<svg width="75" height="72" viewBox="0 0 75 72" fill="none" xmlns="http://www.w3.org/2000/svg">
<g filter="url(#filter0_d_124_24)">
<path d="M62 29C62 45.0163 49.0163 58 33 58C16.9837 58 4 45.0163 4 29C4 12.9837 16.9837 0 33 0C49.0163 0 62 12.9837 62 29Z" fill="#F8C740"/>
</g>
<g filter="url(#filter1_d_124_24)">
<path d="M28.0285 62.7858C34.9722 62.7858 40.5999 57.2848 40.5999 50.5001C40.5999 43.7153 34.9722 38.2144 28.0285 38.2144C22.7691 38.2144 18.2611 41.3722 16.3852 45.8533C15.6878 45.6782 14.9562 45.5858 14.1999 45.5858C9.3383 45.5858 5.3999 49.4359 5.3999 54.1858C5.3999 58.9357 9.3383 62.7858 14.1999 62.7858H28.0285Z" fill="#D9D9D9" stroke="#B9B9B9" stroke-width="2" stroke-linejoin="round"/>
</g>
<g filter="url(#filter2_d_124_24)">
<path d="M50.8856 29.0716C45.2044 29.0716 40.5999 24.3382 40.5999 18.5001C40.5999 12.6621 45.2044 7.92871 50.8856 7.92871C55.1887 7.92871 58.8771 10.6459 60.412 14.5018C60.9825 14.3511 61.5812 14.2716 62.1999 14.2716C66.1776 14.2716 69.3999 17.5844 69.3999 21.6716C69.3999 25.7587 66.1776 29.0716 62.1999 29.0716H50.8856Z" fill="#D9D9D9" stroke="#B6B6B6" stroke-width="2" stroke-linejoin="round"/>
</g>
<defs>
<filter id="filter0_d_124_24" x="0" y="0" width="66" height="66" filterUnits="userSpaceOnUse" color-interpolation-filters="sRGB">
<feFlood flood-opacity="0" result="BackgroundImageFix"/>
<feColorMatrix in="SourceAlpha" type="matrix" values="0 0 0 0 0 0 0 0 0 0 0 0 0 0 0 0 0 0 127 0" result="hardAlpha"/>
<feOffset dy="4"/>
<feGaussianBlur stdDeviation="2"/>
<feComposite in2="hardAlpha" operator="out"/>
<feColorMatrix type="matrix" values="0 0 0 0 0 0 0 0 0 0 0 0 0 0 0 0 0 0 0.25 0"/>
<feBlend mode="normal" in2="BackgroundImageFix" result="effect1_dropShadow_124_24"/>
<feBlend mode="normal" in="SourceGraphic" in2="effect1_dropShadow_124_24" result="shape"/>
</filter>
<filter id="filter1_d_124_24" x="-3" y="29" width="52" height="51" filterUnits="userSpaceOnUse" color-interpolation-filters="sRGB">
<feFlood flood-opacity="0" result="BackgroundImageFix"/>
<feColorMatrix in="SourceAlpha" type="matrix" values="0 0 0 0 0 0 0 0 0 0 0 0 0 0 0 0 0 0 127 0" result="hardAlpha"/>
<feOffset dy="4"/>
<feGaussianBlur stdDeviation="2"/>
<feComposite in2="hardAlpha" operator="out"/>
<feColorMatrix type="matrix" values="0 0 0 0 0 0 0 0 0 0 0 0 0 0 0 0 0 0 0.25 0"/>
<feBlend mode="normal" in2="BackgroundImageFix" result="effect1_dropShadow_124_24"/>
<feBlend mode="normal" in="SourceGraphic" in2="effect1_dropShadow_124_24" result="shape"/>
</filter>
<filter id="filter2_d_124_24" x="33" y="0" width="44" height="45" filterUnits="userSpaceOnUse" color-interpolation-filters="sRGB">
<feFlood flood-opacity="0" result="BackgroundImageFix"/>
<feColorMatrix in="SourceAlpha" type="matrix" values="0 0 0 0 0 0 0 0 0 0 0 0 0 0 0 0 0 0 127 0" result="hardAlpha"/>
<feOffset dy="4"/>
<feGaussianBlur stdDeviation="2"/>
<feComposite in2="hardAlpha" operator="out"/>
<feColorMatrix type="matrix" values="0 0 0 0 0 0 0 0 0 0 0 0 0 0 0 0 0 0 0.25 0"/>
<feBlend mode="normal" in2="BackgroundImageFix" result="effect1_dropShadow_124_24"/>
<feBlend mode="normal" in="SourceGraphic" in2="effect1_dropShadow_124_24" result="shape"/>
</filter>
</defs>
</svg>
