<svg width="308" height="308" viewBox="0 0 308 308" fill="none" xmlns="http://www.w3.org/2000/svg">
<g filter="url(#filter0_d_1_17)">
<path d="M260.944 124.056C260.944 192.57 205.403 248.111 136.889 248.111C68.3748 248.111 12.8333 192.57 12.8333 124.056C12.8333 55.5416 68.3748 0 136.889 0C205.403 0 260.944 55.5416 260.944 124.056Z" fill="#F8C740"/>
</g>
<g filter="url(#filter1_d_1_17)">
<path d="M115.622 268.583C145.326 268.583 169.4 245.051 169.4 216.027C169.4 187.004 145.326 163.472 115.622 163.472C93.1238 163.472 73.8394 176.98 65.8147 196.15C62.8318 195.4 59.7017 195.005 56.4667 195.005C35.6698 195.005 18.8222 211.475 18.8222 231.794C18.8222 252.113 35.6698 268.583 56.4667 268.583H115.622Z" fill="#D9D9D9" stroke="#B9B9B9" stroke-width="2" stroke-linejoin="round"/>
</g>
<g filter="url(#filter2_d_1_17)">
<path d="M213.4 124.361C189.097 124.361 169.4 104.113 169.4 79.1389C169.4 54.1651 189.097 33.9167 213.4 33.9167C231.808 33.9167 247.586 45.5402 254.152 62.0349C256.592 61.3901 259.153 61.05 261.8 61.05C278.816 61.05 292.6 75.2217 292.6 92.7056C292.6 110.189 278.816 124.361 261.8 124.361H213.4Z" fill="#D9D9D9" stroke="#B6B6B6" stroke-width="2" stroke-linejoin="round"/>
</g>
</svg>
