<svg width="75" height="72" viewBox="0 0 75 72" fill="none" xmlns="http://www.w3.org/2000/svg">
<g filter="url(#filter0_d_67_64)">
<path d="M62 29C62 45.0163 49.0163 58 33 58C16.9837 58 4 45.0163 4 29C4 12.9837 16.9837 0 33 0C49.0163 0 62 12.9837 62 29Z" fill="#F8C740"/>
</g>
<g filter="url(#filter1_d_67_64)">
<path d="M28.0286 62.7857C34.9723 62.7857 40.6 57.2847 40.6 50.4999C40.6 43.7152 34.9723 38.2142 28.0286 38.2142C22.7692 38.2142 18.2612 41.372 16.3853 45.8532C15.688 45.678 14.9563 45.5857 14.2 45.5857C9.33842 45.5857 5.40002 49.4357 5.40002 54.1857C5.40002 58.9356 9.33842 62.7857 14.2 62.7857H28.0286Z" fill="#A6B8DF" stroke="#5F75A6" stroke-width="2" stroke-linejoin="round"/>
</g>
<g filter="url(#filter2_d_67_64)">
<path d="M50.8857 29.0714C45.2045 29.0714 40.6 24.338 40.6 18.5C40.6 12.662 45.2045 7.92859 50.8857 7.92859C55.1889 7.92859 58.8773 10.6458 60.4121 14.5017C60.9826 14.3509 61.5813 14.2714 62.2 14.2714C66.1777 14.2714 69.4 17.5843 69.4 21.6714C69.4 25.7586 66.1777 29.0714 62.2 29.0714H50.8857Z" fill="#A6B8DF" stroke="#5F75A6" stroke-width="2" stroke-linejoin="round"/>
</g>
<defs>
<filter id="filter0_d_67_64" x="0" y="0" width="66" height="66" filterUnits="userSpaceOnUse" color-interpolation-filters="sRGB">
<feFlood flood-opacity="0" result="BackgroundImageFix"/>
<feColorMatrix in="SourceAlpha" type="matrix" values="0 0 0 0 0 0 0 0 0 0 0 0 0 0 0 0 0 0 127 0" result="hardAlpha"/>
<feOffset dy="4"/>
<feGaussianBlur stdDeviation="2"/>
<feComposite in2="hardAlpha" operator="out"/>
<feColorMatrix type="matrix" values="0 0 0 0 0 0 0 0 0 0 0 0 0 0 0 0 0 0 0.25 0"/>
<feBlend mode="normal" in2="BackgroundImageFix" result="effect1_dropShadow_67_64"/>
<feBlend mode="normal" in="SourceGraphic" in2="effect1_dropShadow_67_64" result="shape"/>
</filter>
<filter id="filter1_d_67_64" x="-3" y="29" width="52" height="51" filterUnits="userSpaceOnUse" color-interpolation-filters="sRGB">
<feFlood flood-opacity="0" result="BackgroundImageFix"/>
<feColorMatrix in="SourceAlpha" type="matrix" values="0 0 0 0 0 0 0 0 0 0 0 0 0 0 0 0 0 0 127 0" result="hardAlpha"/>
<feOffset dy="4"/>
<feGaussianBlur stdDeviation="2"/>
<feComposite in2="hardAlpha" operator="out"/>
<feColorMatrix type="matrix" values="0 0 0 0 0 0 0 0 0 0 0 0 0 0 0 0 0 0 0.25 0"/>
<feBlend mode="normal" in2="BackgroundImageFix" result="effect1_dropShadow_67_64"/>
<feBlend mode="normal" in="SourceGraphic" in2="effect1_dropShadow_67_64" result="shape"/>
</filter>
<filter id="filter2_d_67_64" x="33" y="0" width="44" height="45" filterUnits="userSpaceOnUse" color-interpolation-filters="sRGB">
<feFlood flood-opacity="0" result="BackgroundImageFix"/>
<feColorMatrix in="SourceAlpha" type="matrix" values="0 0 0 0 0 0 0 0 0 0 0 0 0 0 0 0 0 0 127 0" result="hardAlpha"/>
<feOffset dy="4"/>
<feGaussianBlur stdDeviation="2"/>
<feComposite in2="hardAlpha" operator="out"/>
<feColorMatrix type="matrix" values="0 0 0 0 0 0 0 0 0 0 0 0 0 0 0 0 0 0 0.25 0"/>
<feBlend mode="normal" in2="BackgroundImageFix" result="effect1_dropShadow_67_64"/>
<feBlend mode="normal" in="SourceGraphic" in2="effect1_dropShadow_67_64" result="shape"/>
</filter>
</defs>
</svg>
